<?xml version="1.0" encoding="utf-8"?>
<!-- Generator: Adobe Illustrator 25.4.1, SVG Export Plug-In . SVG Version: 6.00 Build 0)  -->
<svg version="1.1" id="Layer_1" xmlns="http://www.w3.org/2000/svg" xmlns:xlink="http://www.w3.org/1999/xlink" x="0px" y="0px"
	 viewBox="0 0 840.8 283.5" style="background:#0046AA" xml:space="preserve">
<style type="text/css">
	.st0{fill:#FFFFFF;}
</style>
<path class="st0" d="M212.6,161.2c0,6.8-5.6,12.4-12.4,12.4s-12.4-5.6-12.4-12.4c0-6.8,5.6-12.4,12.4-12.4S212.6,154.4,212.6,161.2z
	 M200.2,70.9c-6.8,0-12.4,5.6-12.4,12.4c0,6.8,5.6,12.4,12.4,12.4s12.4-5.6,12.4-12.4C212.6,76.4,207,70.9,200.2,70.9z M200.2,109.8
	c-6.8,0-12.4,5.6-12.4,12.4c0,6.8,5.6,12.4,12.4,12.4s12.4-5.6,12.4-12.4C212.6,115.4,207,109.8,200.2,109.8z M95.7,70.9H70.9v141.7
	h141.7v-24.8H95.7V70.9z M161.2,95.7c6.8,0,12.4-5.6,12.4-12.4c0-6.8-5.6-12.4-12.4-12.4s-12.4,5.6-12.4,12.4
	C148.8,90.1,154.4,95.7,161.2,95.7z M122.2,95.7c6.8,0,12.4-5.6,12.4-12.4c0-6.8-5.6-12.4-12.4-12.4s-12.4,5.6-12.4,12.4
	C109.8,90.1,115.4,95.7,122.2,95.7z M282,109.8h-12.8l0,63.8h46.3v-12.8H282V109.8z M706,141.7c0,12.2-5.5,19.6-10.1,23.6
	c-6.2,5.5-14.2,8.3-23.7,8.3h-24.7v-63.8h24.7c9.5,0,17.5,2.8,23.7,8.3C700.5,122.2,706,129.6,706,141.7z M693.3,141.7
	c0-6-1.9-10.7-5.8-14.1c-3.9-3.4-8.9-5.1-15.3-5.1h-11.9v38.3h11.9c6.4,0,11.5-1.7,15.3-5.1C691.3,152.4,693.3,147.7,693.3,141.7z
	 M769.9,122.6v-12.8h-48.2v63.8h48.2v-12.8h-35.4v-13h27.6v-12.2h-27.6v-13H769.9z M367,109.8l28.9,63.8h-14l-5.8-12.8h-30
	l-5.8,12.8h-14l28.9-63.8H367z M370.3,148.1l-9.2-20.4l-9.2,20.4H370.3z M615.9,145.8c0,6.1-1.3,10.6-3.8,13.3
	c-1.4,1.6-4.1,3.6-10.6,3.6c-6.5,0-9.2-2.1-10.6-3.6c-2.5-2.7-3.8-7.2-3.8-13.3v-35.9h-12.8v35.9c0,9.5,2.4,16.8,7.1,22
	c4.8,5.2,11.4,7.7,20,7.7c8.6,0,15.2-2.6,20-7.7c4.8-5.2,7.1-12.5,7.1-22v-35.9h-12.8V145.8z M398.5,122.6h20.1v51h12.8v-51h20.4
	v-12.8h-53.3V122.6z M502.2,122.6h20.1v51h12.8v-51h20.4v-12.8h-53.3V122.6z M470.6,173.6h12.8v-63.8h-12.8V173.6z"/>
</svg>
