<?xml version="1.0" encoding="utf-8"?>
<!-- Generator: Adobe Illustrator 27.2.0, SVG Export Plug-In . SVG Version: 6.00 Build 0)  -->
<svg version="1.1" id="Layer_1" xmlns="http://www.w3.org/2000/svg" xmlns:xlink="http://www.w3.org/1999/xlink" x="0px" y="0px"
	 viewBox="0 0 703.1 141.7" style="enable-background:new 0 0 703.1 141.7;" xml:space="preserve">
<style type="text/css">
	.st0{fill:#0046AA;}
</style>
<path class="st0" d="M141.7,90.3c0,6.8-5.6,12.4-12.4,12.4c-6.8,0-12.4-5.6-12.4-12.4c0-6.8,5.6-12.4,12.4-12.4
	C136.1,77.9,141.7,83.5,141.7,90.3z M129.3,0c-6.8,0-12.4,5.6-12.4,12.4s5.6,12.4,12.4,12.4c6.8,0,12.4-5.6,12.4-12.4
	C141.7,5.5,136.1,0,129.3,0z M129.3,38.9c-6.8,0-12.4,5.6-12.4,12.4c0,6.8,5.6,12.4,12.4,12.4c6.8,0,12.4-5.6,12.4-12.4
	C141.7,44.5,136.1,38.9,129.3,38.9z M24.8,0H0v141.7h141.7v-24.8H24.8V0z M90.3,24.8c6.8,0,12.4-5.6,12.4-12.4S97.1,0,90.3,0
	S77.9,5.6,77.9,12.4S83.5,24.8,90.3,24.8z M51.3,24.8c6.8,0,12.4-5.6,12.4-12.4S58.1,0,51.3,0S38.9,5.6,38.9,12.4
	C38.9,19.2,44.5,24.8,51.3,24.8z M211.1,38.9h-12.8v63.8h46.3V89.9h-33.5V38.9z M635.1,70.8c0,12.2-5.5,19.6-10.1,23.6
	c-6.2,5.5-14.2,8.3-23.7,8.3h-24.7V38.9h24.7c9.5,0,17.5,2.8,23.7,8.3C629.6,51.3,635.1,58.7,635.1,70.8z M622.4,70.8
	c0-6-1.9-10.7-5.8-14.1c-3.9-3.4-8.9-5.1-15.3-5.1h-11.9v38.3h11.9c6.4,0,11.5-1.7,15.3-5.1C620.4,81.5,622.4,76.8,622.4,70.8z
	 M699,51.7V38.9h-48.2v63.8H699V89.9h-35.4v-13h27.6V64.7h-27.6v-13C663.6,51.7,699,51.7,699,51.7z M296.1,38.9l28.9,63.8h-14
	l-5.8-12.8h-30l-5.8,12.8h-14l28.9-63.8H296.1z M299.4,77.2l-9.2-20.4L281,77.2H299.4z M545,74.9c0,6.1-1.3,10.6-3.8,13.3
	c-1.4,1.6-4.1,3.6-10.6,3.6s-9.2-2.1-10.6-3.6c-2.5-2.7-3.8-7.2-3.8-13.3V39h-12.8v35.9c0,9.5,2.4,16.8,7.1,22
	c4.8,5.2,11.4,7.7,20,7.7s15.2-2.6,20-7.7c4.8-5.2,7.1-12.5,7.1-22V39h-12.8v35.9H545z M327.6,51.7h20.1v51h12.8v-51h20.4V38.9
	h-53.3V51.7z M431.3,51.7h20.1v51h12.8v-51h20.4V38.9h-53.3V51.7z M399.7,102.7h12.8V38.9h-12.8V102.7z"/>
</svg>
