<?xml version="1.0" encoding="utf-8"?>
<!-- Generator: Adobe Illustrator 25.4.1, SVG Export Plug-In . SVG Version: 6.00 Build 0)  -->
<svg version="1.1" id="Layer_1" xmlns="http://www.w3.org/2000/svg" xmlns:xlink="http://www.w3.org/1999/xlink" x="0px" y="0px"
	 viewBox="0 0 395.3 351.2" style="enable-background:new 0 0 395.3 351.2;" xml:space="preserve">
<style type="text/css">
	.st0{fill:#0046AA;}
</style>
<path class="st0" d="M165.8,83.3c0-6.8,5.6-12.4,12.4-12.4s12.4,5.6,12.4,12.4c0,6.8-5.6,12.4-12.4,12.4S165.8,90.1,165.8,83.3z
	 M268.5,187.8H151.6V70.9h-24.8v141.7h141.7V187.8z M256.1,134.6c6.8,0,12.4-5.6,12.4-12.4c0-6.8-5.6-12.4-12.4-12.4
	s-12.4,5.6-12.4,12.4C243.7,129.1,249.3,134.6,256.1,134.6z M217.2,95.7c6.8,0,12.4-5.6,12.4-12.4c0-6.8-5.6-12.4-12.4-12.4
	s-12.4,5.6-12.4,12.4C204.8,90.1,210.3,95.7,217.2,95.7z M256.1,95.7c6.8,0,12.4-5.6,12.4-12.4c0-6.8-5.6-12.4-12.4-12.4
	s-12.4,5.6-12.4,12.4C243.7,90.1,249.3,95.7,256.1,95.7z M256.1,173.6c6.8,0,12.4-5.6,12.4-12.4c0-6.8-5.6-12.4-12.4-12.4
	s-12.4,5.6-12.4,12.4C243.7,168.1,249.3,173.6,256.1,173.6z M324.5,254.5V248h-24.4v32.3h24.4v-6.5h-17.9v-6.6h14v-6.2h-14v-6.6
	H324.5z M120.4,248l14.6,32.3h-7.1l-2.9-6.5h-15.2l-2.9,6.5h-7.1l14.6-32.3H120.4z M122.1,267.4l-4.7-10.3l-4.7,10.3H122.1z
	 M136.3,254.5h10.2v25.8h6.5v-25.8h10.3V248h-27V254.5z M77.3,248h-6.5l0,32.3h23.4v-6.5h-17V248z M172.9,280.3h6.5V248h-6.5V280.3z
	 M292.1,264.2c0,6.2-2.8,9.9-5.1,12c-3.2,2.8-7.2,4.2-12,4.2h-12.5V248H275c4.8,0,8.9,1.4,12,4.2C289.3,254.3,292.1,258,292.1,264.2
	z M285.6,264.2c0-3-1-5.4-2.9-7.1c-1.9-1.7-4.5-2.6-7.8-2.6h-6v19.4h6c3.2,0,5.8-0.9,7.8-2.6C284.7,269.6,285.6,267.2,285.6,264.2z
	 M246.5,266.2c0,3.1-0.6,5.4-1.9,6.7c-0.7,0.8-2.1,1.8-5.4,1.8c-3.3,0-4.7-1-5.4-1.8c-1.3-1.4-1.9-3.6-1.9-6.7V248h-6.5v18.2
	c0,4.8,1.2,8.5,3.6,11.1c2.4,2.6,5.8,3.9,10.1,3.9c4.3,0,7.7-1.3,10.1-3.9c2.4-2.6,3.6-6.3,3.6-11.1V248h-6.5V266.2z M188.9,254.5
	h10.2v25.8h6.5v-25.8h10.3V248h-27V254.5z"/>
</svg>
