<?xml version="1.0" encoding="UTF-8"?><svg id="Layer_1" xmlns="http://www.w3.org/2000/svg" viewBox="0 0 289.13 50"><defs><style>.cls-1{fill:#0046aa;}.cls-2{fill:#fff;}</style></defs><rect class="cls-1" width="289.13" height="50"/><path class="cls-2" d="m106.73,31.97h2.9v-13.98h-2.9v13.98Zm7.15-11.18h4.55v11.18h2.9v-11.18h4.62v-2.81h-12.08v2.81h.02Zm-23.49,0h4.55v11.18h2.9v-11.18h4.62v-2.81h-12.08v2.81h.02Zm49.26,5.09c0,1.34-.29,2.33-.86,2.92-.32.36-.93.79-2.4.79s-2.08-.45-2.4-.79c-.57-.59-.86-1.58-.86-2.92v-7.88h-2.9v7.88c0,2.08.54,3.69,1.61,4.82,1.09,1.13,2.58,1.7,4.53,1.7s3.44-.57,4.53-1.7c1.09-1.13,1.61-2.74,1.61-4.82v-7.88h-2.9v7.88h.04,0Zm-55.67.5l-2.08-4.48-2.08,4.48h4.16Zm-.75-8.4l6.54,14.01h-3.17l-1.31-2.81h-6.79l-1.31,2.81h-3.17l6.54-14.01h2.67Zm91.3,2.81v-2.81h-10.93v14.01h10.93v-2.81h-8.01v-2.87h6.24v-2.67h-6.24v-2.85s8.01,0,8.01,0h0Zm-17.35,4.19c0-1.31-.43-2.35-1.31-3.1-.88-.75-2.01-1.11-3.46-1.11h-2.69v8.4h2.69c1.45,0,2.6-.36,3.46-1.11.86-.72,1.31-1.76,1.31-3.08h0Zm2.87,0c0,2.67-1.24,4.3-2.28,5.18-1.4,1.2-3.21,1.81-5.36,1.81h-5.59v-13.98h5.59c2.15,0,3.96.61,5.36,1.81,1.04.9,2.28,2.53,2.28,5.18h0Zm-96.08-6.99h-2.9v14.01h10.5v-2.81h-7.58v-11.2h-.02Zm-36.21-3.1c1.54,0,2.81-1.22,2.81-2.72s-1.27-2.72-2.81-2.72-2.81,1.22-2.81,2.72,1.27,2.72,2.81,2.72Zm8.82,0c1.54,0,2.81-1.22,2.81-2.72s-1.27-2.72-2.81-2.72-2.81,1.22-2.81,2.72,1.27,2.72,2.81,2.72Zm-14.84-5.43h-5.61v31.09h32.11v-5.43h-26.5V9.46h0Zm23.69,8.53c-1.54,0-2.81,1.22-2.81,2.72s1.27,2.72,2.81,2.72,2.81-1.22,2.81-2.72-1.27-2.72-2.81-2.72Zm0-8.53c-1.54,0-2.81,1.22-2.81,2.72s1.27,2.72,2.81,2.72,2.81-1.22,2.81-2.72-1.27-2.72-2.81-2.72Zm2.81,19.8c0,1.49-1.27,2.72-2.81,2.72s-2.81-1.22-2.81-2.72,1.27-2.72,2.81-2.72,2.81,1.22,2.81,2.72Z"/><rect class="cls-2" x="203.71" y="11.61" width="1.83" height="9.84"/><polygon class="cls-2" points="217.06 11.61 217.06 21.45 215.57 21.45 210.14 14.8 210.14 21.45 208.33 21.45 208.33 11.61 209.82 11.61 215.25 18.26 215.25 11.61 217.06 11.61"/><polygon class="cls-2" points="221.82 13.15 218.56 13.15 218.56 11.61 226.91 11.61 226.91 13.15 223.65 13.15 223.65 21.43 221.82 21.43 221.82 13.15"/><polygon class="cls-2" points="235.75 19.92 235.75 21.45 228.38 21.45 228.38 11.61 235.55 11.61 235.55 13.15 230.21 13.15 230.21 15.71 234.96 15.71 234.96 17.2 230.21 17.2 230.21 19.92 235.75 19.92"/><path class="cls-2" d="m241.89,13.15h-2.13v3.94h2.13c1.61,0,2.42-.72,2.42-1.97s-.84-1.97-2.42-1.97h0Zm2.47,8.3l-2.01-2.87c-.14.02-.25.02-.38.02h-2.22v2.87h-1.83v-9.87h4.05c2.58,0,4.19,1.31,4.19,3.51,0,1.49-.77,2.58-2.1,3.1l2.26,3.24h-1.95,0Z"/><polygon class="cls-2" points="255.67 19.92 255.67 21.45 248.29 21.45 248.29 11.61 255.46 11.61 255.46 13.15 250.12 13.15 250.12 15.71 254.87 15.71 254.87 17.2 250.12 17.2 250.12 19.92 255.67 19.92"/><path class="cls-2" d="m257,20.41l.63-1.43c.79.63,2.04,1.09,3.24,1.09,1.54,0,2.17-.54,2.17-1.29,0-2.13-5.84-.72-5.84-4.39,0-1.58,1.27-2.94,3.96-2.94,1.18,0,2.42.32,3.28.86l-.57,1.43c-.88-.52-1.86-.77-2.72-.77-1.52,0-2.13.59-2.13,1.34,0,2.1,5.84.72,5.84,4.34,0,1.58-1.29,2.92-3.98,2.92-1.54.02-3.08-.45-3.89-1.15h0Z"/><polygon class="cls-2" points="269.13 13.15 265.87 13.15 265.87 11.61 274.22 11.61 274.22 13.15 270.96 13.15 270.96 21.43 269.13 21.43 269.13 13.15"/><polygon class="cls-2" points="205.55 30.01 205.55 32.99 210.3 32.99 210.3 34.53 205.55 34.53 205.55 38.29 203.71 38.29 203.71 28.45 210.89 28.45 210.89 29.98 205.55 29.98 205.55 30.01"/><path class="cls-2" d="m216.75,30.03h-2.13v3.92h2.13c1.61,0,2.42-.72,2.42-1.97.02-1.22-.82-1.95-2.42-1.95h0Zm2.47,8.28l-2.01-2.87c-.14.02-.25.02-.38.02h-2.22v2.87h-1.81v-9.84h4.05c2.58,0,4.19,1.31,4.19,3.51,0,1.49-.77,2.58-2.1,3.1l2.26,3.24h-1.97v-.02h0Z"/><polygon class="cls-2" points="230.55 36.79 230.55 38.33 223.17 38.33 223.17 28.49 230.35 28.49 230.35 30.03 225.01 30.03 225.01 32.59 229.76 32.59 229.76 34.08 225.01 34.08 225.01 36.79 230.55 36.79"/><polygon class="cls-2" points="240.08 36.79 240.08 38.33 232.7 38.33 232.7 28.49 239.87 28.49 239.87 30.03 234.51 30.03 234.51 32.59 239.26 32.59 239.26 34.08 234.51 34.08 234.51 36.79 240.08 36.79"/><rect class="cls-2" x="189.13" y="5.59" width="1.55" height="36.65"/></svg>